<svg xmlns="http://www.w3.org/2000/svg" width="316" height="38" viewBox="0 0 316 38"><path fill="#252525" d="M23.54 35.25L23.54 35.25Q22.77 35.91 21.15 36.41Q19.52 36.90 17.60 36.90L17.60 36.90Q15.29 36.90 13.64 36.22Q11.99 35.53 11.38 34.32L11.38 34.32Q10.78 33.05 9.90 31.05Q9.02 29.04 8.06 26.56Q7.09 24.09 6.08 21.31Q5.06 18.53 4.13 15.67Q3.19 12.81 2.37 10.06Q1.54 7.31 0.94 4.89L0.94 4.89Q1.71 4.13 3.16 3.49Q4.62 2.86 6.27 2.86L6.27 2.86Q8.30 2.86 9.60 3.71Q10.89 4.56 11.49 6.87L11.49 6.87Q12.98 12.26 14.49 17.19Q16.00 22.11 17.66 27.44L17.66 27.44L17.98 27.44Q19.47 22.27 21.04 16.17Q22.61 10.06 24.04 4.01L24.04 4.01Q25.02 3.52 26.15 3.19Q27.28 2.86 28.71 2.86L28.71 2.86Q30.75 2.86 32.17 3.77Q33.60 4.67 33.60 6.76L33.60 6.76Q33.60 7.97 33.03 10.28Q32.45 12.59 31.54 15.48Q30.64 18.37 29.51 21.50Q28.38 24.64 27.25 27.42Q26.13 30.19 25.14 32.31Q24.14 34.43 23.54 35.25ZM65.39 22.99L65.39 22.99Q65.39 26.29 64.38 28.93Q63.36 31.57 61.46 33.41Q59.56 35.25 56.92 36.24Q54.28 37.23 50.98 37.23L50.98 37.23Q47.68 37.23 45.05 36.27Q42.41 35.31 40.51 33.47Q38.61 31.62 37.59 28.98Q36.57 26.34 36.57 22.99L36.57 22.99Q36.57 19.74 37.62 17.10Q38.66 14.46 40.56 12.62Q42.46 10.78 45.10 9.79Q47.74 8.80 50.98 8.80L50.98 8.80Q54.23 8.80 56.87 9.82Q59.51 10.83 61.41 12.68Q63.30 14.52 64.35 17.16Q65.39 19.80 65.39 22.99ZM50.98 16.11L50.98 16.11Q48.67 16.11 47.41 17.90Q46.14 19.69 46.14 22.99L46.14 22.99Q46.14 26.45 47.41 28.19Q48.67 29.92 50.98 29.92L50.98 29.92Q53.30 29.92 54.56 28.16Q55.83 26.40 55.83 22.99L55.83 22.99Q55.83 19.69 54.56 17.90Q53.30 16.11 50.98 16.11ZM96.25 19.14L96.25 36.30Q95.64 36.46 94.52 36.63Q93.39 36.79 92.07 36.79L92.07 36.79Q89.32 36.79 88.11 35.89Q86.90 34.98 86.90 32.39L86.90 32.39L86.90 19.41Q86.90 17.71 85.88 16.91Q84.86 16.11 83.21 16.11L83.21 16.11Q82.11 16.11 81.15 16.39Q80.19 16.66 79.31 17.10L79.31 17.10L79.31 36.30Q78.70 36.46 77.58 36.63Q76.45 36.79 75.13 36.79L75.13 36.79Q72.38 36.79 71.17 35.89Q69.96 34.98 69.96 32.39L69.96 32.39L69.96 15.84Q69.96 14.35 70.59 13.42Q71.22 12.48 72.32 11.71L72.32 11.71Q74.19 10.39 77.03 9.60Q79.86 8.80 83.32 8.80L83.32 8.80Q89.54 8.80 92.89 11.52Q96.25 14.24 96.25 19.14L96.25 19.14ZM125.78 28.16L125.78 28.16Q125.07 28.76 123.94 29.12Q122.81 29.48 121.33 29.48L121.33 29.48Q119.35 29.48 118.06 28.98Q116.76 28.49 116.38 27.28L116.38 27.28Q114.84 22.44 113.85 19.44Q112.86 16.44 112.31 14.19L112.31 14.19L112.03 14.19Q111.87 17.43 111.79 20.10Q111.70 22.77 111.68 25.30Q111.65 27.83 111.57 30.41Q111.48 33 111.32 36.13L111.32 36.13Q110.60 36.41 109.45 36.60Q108.29 36.79 107.14 36.79L107.14 36.79Q104.72 36.79 103.37 36.02Q102.02 35.25 102.02 33.22L102.02 33.22Q102.02 31.51 102.19 28.24Q102.35 24.97 102.60 21.01Q102.85 17.05 103.12 12.87Q103.40 8.69 103.62 5.17L103.62 5.17Q104.06 4.45 105.54 3.63Q107.03 2.80 109.72 2.80L109.72 2.80Q112.64 2.80 114.29 3.71Q115.94 4.62 116.71 6.65L116.71 6.65Q117.20 7.97 117.78 9.68Q118.36 11.38 118.94 13.20Q119.51 15.01 120.06 16.80Q120.61 18.59 121.05 20.02L121.05 20.02L121.33 20.02Q122.65 15.40 123.97 11.08Q125.29 6.76 126.39 3.85L126.39 3.85Q127.21 3.41 128.51 3.11Q129.80 2.80 131.39 2.80L131.39 2.80Q134.09 2.80 135.79 3.60Q137.50 4.40 137.77 5.88L137.77 5.88Q138.00 6.98 138.24 9.27Q138.49 11.55 138.76 14.41Q139.04 17.27 139.31 20.46Q139.59 23.65 139.84 26.59Q140.08 29.53 140.25 31.98Q140.41 34.43 140.47 35.75L140.47 35.75Q139.53 36.30 138.52 36.55Q137.50 36.79 135.91 36.79L135.91 36.79Q133.81 36.79 132.38 36.08Q130.95 35.36 130.84 33.27L130.84 33.27Q130.51 27.28 130.43 22.49Q130.35 17.71 130.19 14.46L130.19 14.46L129.91 14.46Q129.36 16.61 128.31 19.85Q127.27 23.10 125.78 28.16ZM167.59 24.58L153.89 26.67Q154.66 28.65 156.47 29.45Q158.29 30.25 160.55 30.25L160.55 30.25Q162.85 30.25 164.94 29.67Q167.03 29.09 168.30 28.32L168.30 28.32Q169.18 28.87 169.78 29.86Q170.39 30.85 170.39 31.95L170.39 31.95Q170.39 33.33 169.62 34.32Q168.85 35.31 167.45 35.97Q166.05 36.63 164.12 36.93Q162.19 37.23 159.88 37.23L159.88 37.23Q156.64 37.23 153.86 36.33Q151.09 35.42 149.05 33.60Q147.01 31.79 145.86 29.04Q144.71 26.29 144.71 22.60L144.71 22.60Q144.71 18.97 145.89 16.36Q147.07 13.75 149.02 12.07Q150.97 10.39 153.45 9.60Q155.93 8.80 158.51 8.80L158.51 8.80Q161.43 8.80 163.82 9.68Q166.21 10.56 167.94 12.10Q169.68 13.64 170.61 15.78Q171.55 17.93 171.55 20.46L171.55 20.46Q171.55 22.33 170.50 23.32Q169.46 24.31 167.59 24.58L167.59 24.58ZM158.56 15.62L158.56 15.62Q156.47 15.62 155.07 16.88Q153.67 18.15 153.40 20.46L153.40 20.46L162.75 18.92Q162.69 18.37 162.41 17.79Q162.14 17.21 161.65 16.72Q161.15 16.22 160.38 15.92Q159.61 15.62 158.56 15.62ZM185.41 17.49L185.41 36.30Q184.80 36.46 183.67 36.63Q182.54 36.79 181.22 36.79L181.22 36.79Q178.47 36.79 177.26 35.89Q176.06 34.98 176.06 32.39L176.06 32.39L176.06 16.06Q176.06 14.46 176.88 13.28Q177.70 12.10 179.13 11.22L179.13 11.22Q181.06 10.06 183.62 9.46Q186.17 8.85 188.98 8.85L188.98 8.85Q194.97 8.85 194.97 13.09L194.97 13.09Q194.97 14.08 194.70 14.93Q194.42 15.78 194.04 16.39L194.04 16.39Q193.00 16.17 191.01 16.17L191.01 16.17Q189.58 16.17 188.07 16.50Q186.56 16.83 185.41 17.49L185.41 17.49ZM213.73 16.17L213.73 16.17Q212.35 16.17 211.12 16.61Q209.88 17.05 208.97 17.93Q208.06 18.81 207.51 20.10Q206.96 21.39 206.96 23.10L206.96 23.10Q206.96 26.51 208.89 28.16Q210.81 29.81 213.67 29.81L213.67 29.81Q215.32 29.81 216.59 29.40Q217.85 28.98 218.79 28.54L218.79 28.54Q219.83 29.31 220.36 30.19Q220.88 31.07 220.88 32.34L220.88 32.34Q220.88 34.54 218.71 35.86Q216.53 37.18 212.52 37.18L212.52 37.18Q209.05 37.18 206.28 36.27Q203.50 35.36 201.55 33.58Q199.59 31.79 198.55 29.18Q197.50 26.56 197.50 23.10L197.50 23.10Q197.50 19.47 198.69 16.77Q199.87 14.08 201.90 12.32Q203.94 10.56 206.61 9.68Q209.27 8.80 212.24 8.80L212.24 8.80Q216.20 8.80 218.35 10.23Q220.49 11.66 220.49 13.91L220.49 13.91Q220.49 14.96 220.00 15.87Q219.50 16.77 218.84 17.43L218.84 17.43Q217.91 16.99 216.59 16.58Q215.27 16.17 213.73 16.17ZM237.00 30.41L237.00 30.41Q237.93 30.41 239.06 30.22Q240.19 30.03 240.73 29.70L240.73 29.70L240.73 25.30L236.78 25.63Q235.23 25.74 234.25 26.29Q233.25 26.84 233.25 27.94L233.25 27.94Q233.25 29.04 234.11 29.73Q234.96 30.41 237.00 30.41ZM236.56 8.80L236.56 8.80Q239.53 8.80 241.97 9.40Q244.42 10.01 246.15 11.25Q247.88 12.48 248.82 14.38Q249.75 16.28 249.75 18.86L249.75 18.86L249.75 31.18Q249.75 32.61 248.96 33.52Q248.16 34.43 247.06 35.09L247.06 35.09Q243.48 37.23 237.00 37.23L237.00 37.23Q234.08 37.23 231.74 36.68Q229.41 36.13 227.73 35.03Q226.05 33.93 225.14 32.23Q224.23 30.52 224.23 28.27L224.23 28.27Q224.23 24.47 226.49 22.44Q228.75 20.40 233.47 19.91L233.47 19.91L240.68 19.14L240.68 18.75Q240.68 17.16 239.28 16.47Q237.88 15.78 235.23 15.78L235.23 15.78Q233.20 15.78 231.19 16.22Q229.19 16.66 227.59 17.32L227.59 17.32Q226.88 16.83 226.38 15.81Q225.88 14.79 225.88 13.69L225.88 13.69Q225.88 12.26 226.57 11.41Q227.26 10.56 228.69 9.95L228.69 9.95Q230.28 9.35 232.46 9.07Q234.63 8.80 236.56 8.80ZM268.45 8.80L268.45 8.80Q270.82 8.80 272.53 9.40L272.53 9.40L272.53 0.49Q273.13 0.33 274.26 0.16Q275.38 0 276.70 0L276.70 0Q279.45 0 280.67 0.91Q281.88 1.81 281.88 4.40L281.88 4.40L281.88 30.47Q281.88 33.05 279.45 34.59L279.45 34.59Q277.86 35.64 275.36 36.44Q272.86 37.23 269.56 37.23L269.56 37.23Q262.35 37.23 258.34 33.69Q254.32 30.14 254.32 23.10L254.32 23.10Q254.32 19.47 255.42 16.77Q256.52 14.08 258.42 12.32Q260.31 10.56 262.90 9.68Q265.49 8.80 268.45 8.80ZM272.58 29.15L272.58 16.72Q271.98 16.44 271.26 16.28Q270.55 16.11 269.78 16.11L269.78 16.11Q266.92 16.11 265.35 17.85Q263.78 19.58 263.78 23.10L263.78 23.10Q263.78 26.56 265.26 28.21Q266.75 29.86 269.50 29.86L269.50 29.86Q270.49 29.86 271.31 29.64Q272.14 29.42 272.58 29.15L272.58 29.15ZM315.37 22.99L315.37 22.99Q315.37 26.29 314.35 28.93Q313.34 31.57 311.44 33.41Q309.54 35.25 306.90 36.24Q304.26 37.23 300.96 37.23L300.96 37.23Q297.66 37.23 295.02 36.27Q292.38 35.31 290.48 33.47Q288.59 31.62 287.57 28.98Q286.55 26.34 286.55 22.99L286.55 22.99Q286.55 19.74 287.60 17.10Q288.64 14.46 290.54 12.62Q292.44 10.78 295.08 9.79Q297.72 8.80 300.96 8.80L300.96 8.80Q304.21 8.80 306.85 9.82Q309.49 10.83 311.38 12.68Q313.28 14.52 314.33 17.16Q315.37 19.80 315.37 22.99ZM300.96 16.11L300.96 16.11Q298.65 16.11 297.39 17.90Q296.12 19.69 296.12 22.99L296.12 22.99Q296.12 26.45 297.39 28.19Q298.65 29.92 300.96 29.92L300.96 29.92Q303.27 29.92 304.54 28.16Q305.80 26.40 305.80 22.99L305.80 22.99Q305.80 19.69 304.54 17.90Q303.27 16.11 300.96 16.11Z"></path></svg>